<svg width="1200" height="420" viewBox="0 0 1200 420" fill="none" xmlns="http://www.w3.org/2000/svg">
  <defs>
    <pattern id="grid" width="24" height="24" patternUnits="userSpaceOnUse">
      <path d="M 24 0 L 0 0 0 24" fill="none" stroke="#17201C" stroke-opacity="0.04" stroke-width="1"/>
    </pattern>
    <filter id="shadow" x="-20%" y="-50%" width="140%" height="200%">
      <feDropShadow dx="0" dy="12" stdDeviation="12" flood-color="#17201C" flood-opacity="0.10"/>
    </filter>
    <marker id="arrow" markerWidth="12" markerHeight="12" refX="9" refY="6" orient="auto">
      <path d="M2 2 L10 6 L2 10" fill="none" stroke="#0D7771" stroke-width="2.2" stroke-linecap="round" stroke-linejoin="round"/>
    </marker>
  </defs>

  <rect width="1200" height="420" rx="24" fill="#F7F4EE"/>
  <rect width="1200" height="420" rx="24" fill="url(#grid)"/>

  <g filter="url(#shadow)">
    <rect x="36" y="58" width="198" height="78" rx="18" fill="#FFFFFF" fill-opacity="0.78" stroke="#0D7771" stroke-opacity="0.23"/>
    <text x="135" y="105" text-anchor="middle" fill="#17201C" font-family="Inter, Segoe UI, Arial, sans-serif" font-size="18" font-weight="800">Facebook Metrics</text>

    <rect x="36" y="171" width="198" height="78" rx="18" fill="#FFFFFF" fill-opacity="0.78" stroke="#0D7771" stroke-opacity="0.23"/>
    <text x="135" y="218" text-anchor="middle" fill="#17201C" font-family="Inter, Segoe UI, Arial, sans-serif" font-size="18" font-weight="800">Instagram Metrics</text>

    <rect x="36" y="284" width="198" height="78" rx="18" fill="#FFFFFF" fill-opacity="0.78" stroke="#0D7771" stroke-opacity="0.23"/>
    <text x="135" y="331" text-anchor="middle" fill="#17201C" font-family="Inter, Segoe UI, Arial, sans-serif" font-size="18" font-weight="800">TikTok Metrics</text>

    <rect x="350" y="171" width="186" height="78" rx="18" fill="#EAF5EF" fill-opacity="0.94" stroke="#0D7771" stroke-opacity="0.34"/>
    <text x="443" y="218" text-anchor="middle" fill="#17201C" font-family="Inter, Segoe UI, Arial, sans-serif" font-size="18" font-weight="800">Data Cleaning</text>

    <rect x="604" y="171" width="220" height="78" rx="18" fill="#FFFFFF" fill-opacity="0.78" stroke="#0D7771" stroke-opacity="0.23"/>
    <text x="714" y="218" text-anchor="middle" fill="#17201C" font-family="Inter, Segoe UI, Arial, sans-serif" font-size="18" font-weight="800">Performance Scoring</text>

    <rect x="878" y="171" width="160" height="78" rx="18" fill="#FFFFFF" fill-opacity="0.78" stroke="#0D7771" stroke-opacity="0.23"/>
    <text x="958" y="218" text-anchor="middle" fill="#17201C" font-family="Inter, Segoe UI, Arial, sans-serif" font-size="18" font-weight="800">AI Strategy</text>

    <rect x="1080" y="171" width="102" height="78" rx="18" fill="#FFFAF2" fill-opacity="0.94" stroke="#D2A13A" stroke-opacity="0.38"/>
    <text x="1131" y="203" text-anchor="middle" fill="#17201C" font-family="Inter, Segoe UI, Arial, sans-serif" font-size="15" font-weight="800">Campaign</text>
    <text x="1131" y="225" text-anchor="middle" fill="#17201C" font-family="Inter, Segoe UI, Arial, sans-serif" font-size="15" font-weight="800">Plan</text>
  </g>

  <g stroke="#0D7771" stroke-width="2.6" stroke-linecap="round" stroke-opacity="0.72" marker-end="url(#arrow)">
    <path d="M246 97 H280 C322 97 322 210 338 210"/>
    <path d="M246 210 H338"/>
    <path d="M246 323 H280 C322 323 322 210 338 210"/>
    <path d="M548 210 H592"/>
    <path d="M836 210 H866"/>
    <path d="M1050 210 H1068"/>
  </g>
</svg>
